<svg width="25" height="25" viewBox="0 0 25 25" fill="none" xmlns="http://www.w3.org/2000/svg">
<path fill-rule="evenodd" clip-rule="evenodd" d="M16.5716 2.08331C19.8466 2.08331 22.0466 4.32602 22.0466 7.66352V17.2427C22.0466 20.6094 19.9143 22.7989 16.6143 22.8198L8.60072 22.8229C5.32572 22.8229 3.12468 20.5802 3.12468 17.2427V7.66352C3.12468 4.29581 5.25697 2.10727 8.55697 2.08748L16.5705 2.08331H16.5716ZM16.5716 3.64581L8.56218 3.64998C6.13718 3.66456 4.68718 5.16456 4.68718 7.66352V17.2427C4.68718 19.7583 6.15072 21.2604 8.59968 21.2604L16.6091 21.2573C19.0341 21.2427 20.4841 19.7406 20.4841 17.2427V7.66352C20.4841 5.1479 19.0216 3.64581 16.5716 3.64581ZM16.3706 16.1184C16.8019 16.1184 17.1519 16.4684 17.1519 16.8997C17.1519 17.3309 16.8019 17.6809 16.3706 17.6809H8.84978C8.41853 17.6809 8.06853 17.3309 8.06853 16.8997C8.06853 16.4684 8.41853 16.1184 8.84978 16.1184H16.3706ZM16.3706 11.7575C16.8019 11.7575 17.1519 12.1075 17.1519 12.5387C17.1519 12.97 16.8019 13.32 16.3706 13.32H8.84978C8.41853 13.32 8.06853 12.97 8.06853 12.5387C8.06853 12.1075 8.41853 11.7575 8.84978 11.7575H16.3706ZM11.7193 7.40665C12.1505 7.40665 12.5005 7.75665 12.5005 8.1879C12.5005 8.61915 12.1505 8.96915 11.7193 8.96915H8.84947C8.41822 8.96915 8.06822 8.61915 8.06822 8.1879C8.06822 7.75665 8.41822 7.40665 8.84947 7.40665H11.7193Z" fill="#E1E1E1"/>
</svg>
