<svg width="26" height="25" viewBox="0 0 26 25" fill="none" xmlns="http://www.w3.org/2000/svg">
<path fill-rule="evenodd" clip-rule="evenodd" d="M14.8599 15.9284C16.1642 15.9284 17.2259 16.942 17.2259 18.1878V21.392C17.2259 21.6597 17.449 21.8743 17.735 21.8805H19.7999C21.427 21.8805 22.7498 20.6243 22.7498 19.0805V9.99301C22.7422 9.46176 22.4789 8.96176 22.0272 8.62947L14.8848 3.15239C13.926 2.42218 12.5849 2.42218 11.6229 3.15447L4.52919 8.62739C4.06011 8.9701 3.79686 9.4701 3.79144 10.0107V19.0805C3.79144 20.6243 5.11419 21.8805 6.74136 21.8805H8.82569C9.11927 21.8805 9.35761 21.6566 9.35761 21.3816C9.35761 21.3211 9.36519 21.2607 9.37819 21.2034V18.1878C9.37819 16.9493 10.4334 15.9368 11.7279 15.9284H14.8599ZM19.7999 23.443H17.7155C16.5217 23.4159 15.6009 22.5149 15.6009 21.392V18.1878C15.6009 17.8034 15.2683 17.4909 14.8599 17.4909H11.7334C11.3336 17.493 11.0032 17.8066 11.0032 18.1878V21.3816C11.0032 21.4597 10.9924 21.5347 10.9696 21.6055C10.8526 22.6368 9.93611 23.443 8.82569 23.443H6.74136C4.21828 23.443 2.16644 21.4857 2.16644 19.0805V10.0034C2.17728 8.96801 2.67344 8.0201 3.53036 7.39614L10.6099 1.9326C12.1689 0.745095 14.3409 0.745095 15.8966 1.93051L23.0271 7.39926C23.8645 8.0128 24.3607 8.95864 24.3748 9.98155V19.0805C24.3748 21.4857 22.3229 23.443 19.7999 23.443Z" fill="#E1E1E1"/>
</svg>
