<svg width="25" height="25" viewBox="0 0 25 25" fill="none" xmlns="http://www.w3.org/2000/svg">
<path fill-rule="evenodd" clip-rule="evenodd" d="M8.42628 5.2098L8.91621 5.21043C8.99996 5.21055 9.08465 5.21067 9.17011 5.2108L9.69081 5.21165C10.8333 5.2136 12.0502 5.21627 12.9777 5.2182L13.3839 5.21903C13.4477 5.21916 13.5095 5.21928 13.5691 5.2194C15.9128 5.05481 18.0284 6.7944 18.217 9.12877C18.2187 9.15272 18.2203 9.28859 18.2216 9.53574L20.3839 7.76492C21.013 7.24929 21.8599 7.14825 22.5943 7.49512C23.3287 7.84408 23.7849 8.56492 23.7839 9.37742L23.7714 17.0326C23.7703 17.8451 23.313 18.566 22.5797 18.9118C22.2922 19.0482 21.988 19.1139 21.6859 19.1139C21.2162 19.1139 20.7526 18.9524 20.3703 18.6389L18.2264 16.8599C18.2264 16.8901 18.2264 16.9203 18.2264 16.9506C18.2701 18.0506 17.8784 19.11 17.1222 19.9329C16.3274 20.7986 15.2316 21.3017 14.0378 21.3506C14.0176 21.3521 13.9035 21.3531 13.7162 21.3537L13.3047 21.3544C13.1442 21.3545 12.9618 21.3545 12.762 21.3544L11.8809 21.3536C11.8015 21.3535 11.7208 21.3534 11.639 21.3533L11.1365 21.3525C9.93927 21.3504 8.59062 21.3473 7.54504 21.345L7.11682 21.3441C6.98115 21.3438 6.85298 21.3436 6.73365 21.3434C6.62324 21.3517 6.51282 21.3559 6.4024 21.3559C4.20032 21.3569 2.27949 19.6694 2.09824 17.4559L2.09807 17.4536L2.0971 17.433C2.09703 17.4307 2.09695 17.4282 2.09688 17.4255L2.09616 17.3927C2.09608 17.388 2.096 17.383 2.09591 17.3776L2.09512 17.3169C2.09503 17.3088 2.09494 17.3001 2.09485 17.2909L2.09402 17.1924C2.09392 17.1796 2.09383 17.1662 2.09374 17.1521L2.09317 17.0591C2.09307 17.0421 2.09298 17.0244 2.09289 17.0059L2.09204 16.8174C2.09195 16.7939 2.09185 16.7695 2.09176 16.7442L2.09095 16.4905C2.09086 16.4593 2.09077 16.4271 2.09068 16.3939L2.08993 16.0651C2.08985 16.0252 2.08977 15.9841 2.08969 15.9418L2.08882 15.3747C2.08875 15.3223 2.08869 15.2685 2.08862 15.2134L2.08781 14.2794C2.08777 14.2097 2.08773 14.1384 2.08769 14.0656L2.08767 9.98444C2.08772 9.86067 2.08777 9.73483 2.08782 9.6069C2.03782 8.53294 2.4274 7.46627 3.18782 6.63606C3.98157 5.7694 5.07636 5.26419 6.27115 5.21315C6.28724 5.21199 6.36337 5.21111 6.48895 5.21048L6.71307 5.2097C6.75616 5.2096 6.80201 5.20951 6.85046 5.20944L8.19223 5.20955C8.26886 5.20963 8.34694 5.20971 8.42628 5.2098ZM13.6253 6.77981C12.3102 6.7779 10.7021 6.7756 9.32976 6.7741L8.60779 6.77337C8.49242 6.77327 8.37979 6.77317 8.27031 6.77308L6.45877 6.77314C6.3906 6.77345 6.3465 6.77391 6.32949 6.7746C5.56074 6.8069 4.85136 7.13294 4.3399 7.69127C3.86282 8.21315 3.61699 8.87981 3.64928 9.57148L3.65014 13.5954C3.65018 13.6842 3.65023 13.7724 3.65028 13.8599L3.65124 15.1037C3.65131 15.1811 3.65139 15.2572 3.65148 15.3319L3.65201 15.7622C3.65211 15.8308 3.65221 15.8978 3.65231 15.963L3.65333 16.4994C3.65443 16.9823 3.65584 17.2955 3.65761 17.3559C3.77636 18.7986 5.12844 19.9017 6.67636 19.7829C6.84005 19.7832 7.00825 19.7834 7.17993 19.7837L7.70445 19.7845C8.14859 19.7853 8.60822 19.786 9.06754 19.7868L9.61756 19.7877C9.89148 19.7882 10.163 19.7886 10.4287 19.789L10.9514 19.7898C11.0369 19.79 11.1215 19.7901 11.2051 19.7902L11.6931 19.7908C11.7721 19.7909 11.8498 19.791 11.926 19.7911L13.765 19.7911C13.8853 19.7906 13.9609 19.79 13.9837 19.7892C14.7493 19.7579 15.4597 19.4329 15.9712 18.8756C16.4493 18.3559 16.6951 17.6892 16.6649 17.0006L16.664 16.9835L16.6638 11.9458C16.6638 11.8639 16.6637 11.7832 16.6637 11.7036L16.6629 10.8121C16.6628 10.7437 16.6627 10.677 16.6626 10.612L16.6617 10.0772C16.6614 9.9167 16.661 9.77503 16.6606 9.65529L16.6597 9.44593C16.6591 9.32707 16.6584 9.25084 16.6576 9.2246C16.5399 7.7746 15.1816 6.65794 13.6253 6.77981ZM21.3734 8.97429L18.226 11.5423C18.2261 11.6703 18.2262 11.8033 18.2263 11.9414L18.227 14.5535L21.3609 17.4316C21.5912 17.6191 21.8224 17.542 21.912 17.4982C22.0016 17.4566 22.2089 17.3264 22.2089 17.0305L22.2214 9.37533C22.2224 9.0795 22.0141 8.94929 21.9245 8.90658C21.8359 8.86492 21.6016 8.78679 21.3734 8.97429Z" fill="#E1E1E1"/>
</svg>
